<svg width="128" height="83" viewBox="0 0 128 83" fill="none" xmlns="http://www.w3.org/2000/svg">
<path d="M14.432 4.864C14.9867 5.90933 15.1147 7.232 14.816 8.832H14.784C14.0373 8.96 13.2373 9.04533 12.384 9.088C11.5307 9.10933 10.7307 9.01333 9.984 8.8C10.112 8.224 9.99467 7.744 9.632 7.36C9.26933 6.976 8.832 6.73067 8.32 6.624C7.808 6.51733 7.30667 6.57067 6.816 6.784C6.34667 6.99733 6.06933 7.40267 5.984 8C5.94133 8.14933 5.92 8.29867 5.92 8.448C5.94133 8.576 5.96267 8.71467 5.984 8.864C6.15467 9.376 6.432 9.71733 6.816 9.888C7.2 10.0587 7.616 10.176 8.064 10.24C9.19467 10.368 10.24 10.7307 11.2 11.328C12.1813 11.9253 12.9813 12.6827 13.6 13.6C13.984 14.0907 14.272 14.624 14.464 15.2C14.656 15.7547 14.7627 16.3307 14.784 16.928C14.8267 17.5253 14.784 18.1333 14.656 18.752C14.5493 19.3493 14.368 19.9253 14.112 20.48C13.856 21.1413 13.5147 21.7067 13.088 22.176C12.6613 22.6453 12.1707 23.0293 11.616 23.328C11.0827 23.6267 10.496 23.8507 9.856 24C9.23733 24.128 8.59733 24.1813 7.936 24.16C6.99733 24.1387 6.05867 23.9787 5.12 23.68C4.20267 23.36 3.38133 22.9227 2.656 22.368C1.93067 21.8133 1.35467 21.1413 0.928 20.352C0.501333 19.5413 0.32 18.624 0.384 17.6V17.504V17.408C1.13067 17.3013 1.952 17.28 2.848 17.344C3.744 17.3867 4.55467 17.3973 5.28 17.376C5.32267 18.0587 5.58933 18.5707 6.08 18.912C6.592 19.2533 7.12533 19.424 7.68 19.424C8.256 19.4027 8.74667 19.2107 9.152 18.848C9.57867 18.4853 9.728 17.9307 9.6 17.184C9.536 16.672 9.344 16.2667 9.024 15.968C8.704 15.648 8.32 15.392 7.872 15.2C7.44533 15.008 6.976 14.8693 6.464 14.784C5.952 14.6773 5.472 14.5813 5.024 14.496C4.59733 14.4107 4.20267 14.272 3.84 14.08C3.47733 13.888 3.14667 13.664 2.848 13.408C1.86667 12.4693 1.22667 11.4347 0.928 10.304C0.650667 9.17333 0.64 8.07467 0.896 7.008C1.152 5.94133 1.632 4.97067 2.336 4.096C3.06133 3.22133 3.936 2.57067 4.96 2.144C5.472 1.93067 6.03733 1.792 6.656 1.728C7.27467 1.64267 7.89333 1.62133 8.512 1.664C9.152 1.68533 9.77067 1.77067 10.368 1.92C10.9867 2.06933 11.552 2.26133 12.064 2.496C13.088 3.02933 13.8773 3.81867 14.432 4.864ZM26.7553 7.968C27.2886 7.98933 27.8966 8.02133 28.5793 8.064C28.6006 8.192 28.6113 8.32 28.6113 8.448C28.6326 8.576 28.6433 8.704 28.6433 8.832V9.152C28.5793 11.456 28.5899 13.728 28.6753 15.968C28.7606 18.1867 28.7286 20.4373 28.5793 22.72C28.5793 22.9973 28.5686 23.2747 28.5473 23.552C28.5473 23.8293 28.4193 23.9893 28.1633 24.032H27.7793C27.4379 24.032 27.0859 24.0213 26.7233 24C26.3819 23.9573 26.0406 23.936 25.6993 23.936C25.4646 23.936 25.2299 23.9573 24.9953 24C24.7819 24.0213 24.5579 24.032 24.3233 24.032C24.1739 23.9893 24.0673 23.904 24.0033 23.776C23.9606 23.648 23.9392 23.4987 23.9392 23.328C23.9392 23.0933 23.9606 22.9013 24.0033 22.752C24.0459 22.6027 24.0673 22.4213 24.0673 22.208C23.5553 22.72 22.9046 23.1573 22.1153 23.52C21.3473 23.8827 20.5899 24.064 19.8433 24.064C19.0113 24.064 18.2966 23.776 17.6993 23.2C17.1233 22.624 16.6433 21.9093 16.2593 21.056C15.8753 20.2027 15.5873 19.2747 15.3953 18.272C15.2246 17.2693 15.1393 16.3413 15.1393 15.488C15.1393 14.4213 15.2779 13.44 15.5553 12.544C15.8326 11.648 16.2059 10.88 16.6753 10.24C17.1659 9.57867 17.7419 9.06667 18.4033 8.704C19.0646 8.32 19.7686 8.11733 20.5153 8.096C20.8993 8.096 21.2513 8.10667 21.5713 8.128C21.9126 8.128 22.2219 8.18133 22.4993 8.288C22.7766 8.37333 23.0219 8.52267 23.2353 8.736C23.4486 8.928 23.6299 9.20533 23.7793 9.568C23.7579 9.22667 23.7686 8.93867 23.8113 8.704C23.8753 8.448 23.9073 8.192 23.9073 7.936C23.9073 7.91467 23.9713 7.904 24.0993 7.904C24.2486 7.88267 24.4086 7.88267 24.5793 7.904C24.7499 7.904 24.9206 7.904 25.0913 7.904C25.2619 7.904 25.3793 7.904 25.4433 7.904C25.8059 7.92533 26.2433 7.94667 26.7553 7.968ZM20.1633 13.024C19.6726 13.4293 19.3739 13.8987 19.2673 14.432C19.1819 14.7093 19.1286 14.9973 19.1073 15.296C19.0859 15.5733 19.0753 15.8507 19.0753 16.128C19.0753 17.088 19.3206 17.9093 19.8113 18.592C20.3233 19.2533 21.0273 19.584 21.9233 19.584C22.4566 19.584 22.8513 19.4987 23.1073 19.328C23.3846 19.136 23.5766 18.88 23.6833 18.56C23.8113 18.2187 23.8753 17.8133 23.8753 17.344C23.8966 16.8533 23.9073 16.3093 23.9073 15.712C23.9073 14.9653 23.8966 14.3787 23.8753 13.952C23.8753 13.504 23.8219 13.1627 23.7153 12.928C23.6299 12.6933 23.4699 12.544 23.2353 12.48C23.0219 12.416 22.6913 12.384 22.2433 12.384C21.3686 12.384 20.6753 12.5973 20.1633 13.024ZM34.126 8.928C34.126 9.16267 34.1367 9.42933 34.158 9.728C34.2647 9.664 34.3927 9.58933 34.542 9.504C34.7127 9.41867 34.8513 9.33333 34.958 9.248C35.406 8.928 35.9073 8.672 36.462 8.48C37.0167 8.288 37.582 8.18133 38.158 8.16C38.7553 8.13867 39.3313 8.20267 39.886 8.352C40.4407 8.50133 40.942 8.768 41.39 9.152C41.6033 9.344 41.7633 9.74933 41.87 10.368C41.998 10.9653 42.0727 11.6907 42.094 12.544C42.1367 13.3973 42.1473 14.336 42.126 15.36C42.126 16.3627 42.1153 17.3867 42.094 18.432C42.0727 19.456 42.0513 20.448 42.03 21.408C42.0087 22.368 42.0193 23.2107 42.062 23.936C41.3153 24.0427 40.6433 24.0853 40.046 24.064C39.47 24.064 38.8087 24.064 38.062 24.064C38.0193 23.5733 37.998 23.0187 37.998 22.4C37.998 21.7813 37.998 21.1413 37.998 20.48C38.0193 19.8187 38.0193 19.1573 37.998 18.496C37.998 17.8347 37.9767 17.216 37.934 16.64C37.9127 16.384 37.8913 16.1067 37.87 15.808C37.8487 15.488 37.806 15.1787 37.742 14.88C37.6993 14.5813 37.6247 14.3147 37.518 14.08C37.4327 13.8453 37.3047 13.664 37.134 13.536C37.1127 13.5147 37.0913 13.504 37.07 13.504C37.0487 13.504 37.0273 13.4933 37.006 13.472C36.8353 13.3867 36.5793 13.3227 36.238 13.28C35.918 13.216 35.598 13.2373 35.278 13.344C34.958 13.4293 34.67 13.6213 34.414 13.92C34.158 14.1973 34.0087 14.624 33.966 15.2C33.9233 15.9467 33.9127 16.6827 33.934 17.408C33.9553 18.112 33.9767 18.8267 33.998 19.552C34.0407 20.256 34.062 20.96 34.062 21.664C34.062 22.368 34.0193 23.072 33.934 23.776V23.904C33.5713 24.0107 33.2513 24.0747 32.974 24.096C32.718 24.1173 32.4513 24.1173 32.174 24.096C31.8967 24.096 31.5873 24.0853 31.246 24.064C30.9047 24.0427 30.478 24.0533 29.966 24.096C29.966 21.472 29.934 18.848 29.87 16.224C29.8273 13.6 29.8487 10.88 29.934 8.064C30.19 8.08533 30.4033 8.10667 30.574 8.128C30.7447 8.128 30.9047 8.128 31.054 8.128C31.2033 8.128 31.3633 8.128 31.534 8.128C31.7047 8.10667 31.918 8.08533 32.174 8.064C32.2593 8.064 32.4087 8.05333 32.622 8.032C32.8353 7.98933 33.0487 7.95733 33.262 7.936C33.4753 7.91467 33.6673 7.91467 33.838 7.936C34.0087 7.936 34.094 7.968 34.094 8.032C34.1367 8.39467 34.1473 8.69333 34.126 8.928ZM51.5963 2.848C51.6176 2.61333 51.6389 2.28267 51.6603 1.856V1.504C51.6603 1.48267 51.7989 1.46133 52.0763 1.44C52.3749 1.39733 52.7269 1.376 53.1323 1.376C53.5589 1.35467 54.0069 1.35467 54.4763 1.376C54.9456 1.376 55.3509 1.408 55.6923 1.472V3.584C55.6923 7.14667 55.7456 10.6667 55.8523 14.144C55.9589 17.6213 55.9696 20.896 55.8843 23.968C55.2229 23.968 54.4976 23.9787 53.7083 24C52.9189 24.0427 52.2043 24.0213 51.5642 23.936C51.5429 23.8933 51.5323 23.8187 51.5323 23.712C51.5323 23.4987 51.5216 23.328 51.5003 23.2C51.5003 23.072 51.5003 22.8907 51.5003 22.656C51.4576 22.5493 51.4043 22.4747 51.3403 22.432C51.2976 22.368 51.2443 22.4 51.1803 22.528C50.8603 23.168 50.4336 23.584 49.9003 23.776C49.3669 23.9467 48.8016 23.9893 48.2043 23.904C46.9883 23.8187 46.0283 23.5093 45.3243 22.976C44.6203 22.4213 44.0869 21.728 43.7243 20.896C43.3829 20.0427 43.1483 19.0933 43.0203 18.048C42.9136 17.0027 42.8496 15.9467 42.8283 14.88C42.8283 14.1333 42.8709 13.408 42.9563 12.704C43.0629 12 43.2123 11.36 43.4043 10.784C43.6176 10.1867 43.8843 9.68533 44.2043 9.28C44.5456 8.85333 44.9509 8.55467 45.4203 8.384C45.9963 8.17067 46.6256 8.04267 47.3083 8C48.0123 7.936 48.6736 7.936 49.2923 8C49.9109 8.04267 50.4336 8.13867 50.8603 8.288C51.2869 8.43733 51.5216 8.608 51.5642 8.8C51.5429 7.79733 51.5323 6.98667 51.5323 6.368C51.5323 5.74933 51.5323 5.25867 51.5323 4.896C51.5323 4.512 51.5323 4.224 51.5323 4.032C51.5536 3.81867 51.5642 3.62667 51.5642 3.456C51.5856 3.264 51.5963 3.06133 51.5963 2.848ZM47.6283 12.224C47.1163 12.608 46.8069 13.1733 46.7003 13.92C46.5936 14.2187 46.5296 14.528 46.5083 14.848C46.4869 15.168 46.4763 15.4773 46.4763 15.776C46.4763 16.3093 46.5403 16.832 46.6683 17.344C46.7963 17.8347 46.9883 18.2827 47.2443 18.688C47.5003 19.072 47.8096 19.3813 48.1723 19.616C48.5349 19.8507 48.9403 19.968 49.3883 19.968C49.9216 19.968 50.3376 19.8507 50.6363 19.616C50.9563 19.3813 51.1909 19.0613 51.3403 18.656C51.5109 18.2507 51.6069 17.7707 51.6283 17.216C51.6709 16.64 51.6923 16.0107 51.6923 15.328C51.6923 14.496 51.6709 13.8453 51.6283 13.376C51.6069 12.8853 51.5323 12.512 51.4043 12.256C51.2763 12 51.0736 11.84 50.7963 11.776C50.5403 11.6907 50.1883 11.648 49.7403 11.648C48.8656 11.648 48.1616 11.84 47.6283 12.224ZM61.4728 8.8C61.4941 8.864 61.5048 8.97067 61.5048 9.12C61.5901 9.07733 61.7821 8.992 62.0808 8.864C62.4008 8.736 62.7101 8.61867 63.0088 8.512C63.4141 8.384 63.8728 8.288 64.3848 8.224C64.8968 8.13867 65.3768 8.08533 65.8248 8.064C66.2728 8.04267 66.6461 8.04267 66.9448 8.064C67.2648 8.064 67.4248 8.07467 67.4248 8.096C67.4248 8.82133 67.4141 9.46133 67.3928 10.016C67.3928 10.5707 67.3928 11.072 67.3928 11.52C67.3928 11.9467 67.3928 12.3413 67.3928 12.704C67.3928 13.0667 67.4034 13.408 67.4248 13.728L67.1368 13.632C67.0301 13.5893 66.9128 13.5573 66.7848 13.536C66.6781 13.4933 66.5714 13.4507 66.4648 13.408C66.2088 13.344 65.9421 13.2907 65.6648 13.248C65.4088 13.2053 65.2701 13.184 65.2488 13.184C64.6728 13.12 64.1394 13.088 63.6488 13.088C63.1794 13.088 62.7634 13.1627 62.4008 13.312C62.0594 13.4613 61.7928 13.696 61.6008 14.016C61.4088 14.336 61.3234 14.7947 61.3448 15.392C61.3661 16.1387 61.3874 16.8427 61.4088 17.504C61.4301 18.1653 61.4408 18.8373 61.4408 19.52C61.4408 20.1813 61.4408 20.864 61.4408 21.568C61.4621 22.2507 61.4728 22.9867 61.4728 23.776V23.904C61.1101 24.0107 60.7794 24.0747 60.4808 24.096C60.1821 24.1173 59.8728 24.1173 59.5528 24.096C59.2328 24.096 58.8808 24.0853 58.4968 24.064C58.1341 24.0427 57.6968 24.0533 57.1848 24.096C57.1848 21.472 57.1528 18.848 57.0888 16.224C57.0461 13.6 57.0674 10.88 57.1528 8.064C57.4088 8.08533 57.6221 8.10667 57.7928 8.128C57.9634 8.128 58.1234 8.128 58.2728 8.128C58.4221 8.128 58.5821 8.128 58.7528 8.128C58.9234 8.10667 59.1368 8.08533 59.3928 8.064C59.4781 8.064 59.6274 8.05333 59.8408 8.032C60.0754 8.01067 60.3101 7.98933 60.5448 7.968C60.8008 7.94667 61.0141 7.94667 61.1848 7.968C61.3768 7.968 61.4728 7.98933 61.4728 8.032C61.4728 8.20267 61.4728 8.33067 61.4728 8.416C61.4728 8.50133 61.4728 8.576 61.4728 8.64C61.4728 8.68267 61.4728 8.736 61.4728 8.8ZM67.902 10.368C68.03 9.96267 68.126 9.64267 68.19 9.408C68.3393 9.088 68.574 8.81067 68.894 8.576C69.2353 8.34133 69.6193 8.14933 70.046 8C70.494 7.82933 70.9633 7.712 71.454 7.648C71.966 7.584 72.478 7.552 72.99 7.552C73.4167 7.59467 73.822 7.60533 74.206 7.584C74.6113 7.54133 75.038 7.54133 75.486 7.584C76.1687 7.62667 76.8193 7.76533 77.438 8C78.0567 8.21333 78.59 8.53333 79.038 8.96C79.3367 9.152 79.5713 9.46133 79.742 9.888C79.9127 10.3147 80.0407 10.816 80.126 11.392C80.2113 11.9467 80.2647 12.5653 80.286 13.248C80.3073 13.9093 80.3287 14.592 80.35 15.296C80.3287 15.9147 80.2967 16.6187 80.254 17.408C80.2327 18.1973 80.1793 18.9547 80.094 19.68C80.03 20.4053 79.934 21.056 79.806 21.632C79.6993 22.208 79.5393 22.6027 79.326 22.816C78.9633 23.328 78.4833 23.6907 77.886 23.904C77.31 24.1173 76.6807 24.2453 75.998 24.288C75.3153 24.352 74.6113 24.352 73.886 24.288C73.1607 24.2453 72.4993 24.224 71.902 24.224C70.814 24.032 69.8967 23.5627 69.15 22.816C68.574 22.304 68.1793 21.664 67.966 20.896C67.7527 20.128 67.6247 19.328 67.582 18.496C67.5393 17.6427 67.5287 16.7893 67.55 15.936C67.5927 15.0827 67.582 14.304 67.518 13.6C67.518 13.216 67.5287 12.8427 67.55 12.48C67.5713 12.096 67.614 11.7013 67.678 11.296C67.6993 11.0613 67.774 10.752 67.902 10.368ZM73.278 12.48C72.83 12.608 72.4673 12.8427 72.19 13.184C72.062 13.2693 71.966 13.4827 71.902 13.824C71.8167 14.5067 71.774 15.1893 71.774 15.872C71.774 16.5333 71.7527 17.2373 71.71 17.984C71.6887 18.4747 71.8167 18.8587 72.094 19.136C72.3713 19.392 72.702 19.5733 73.086 19.68C73.4913 19.7653 73.9073 19.7867 74.334 19.744C74.7607 19.68 75.1127 19.5733 75.39 19.424C75.7527 19.2533 75.998 18.9013 76.126 18.368C76.2113 17.6853 76.2753 17.0027 76.318 16.32C76.382 15.616 76.35 14.9547 76.222 14.336C76.1153 13.5893 75.806 13.0453 75.294 12.704C74.782 12.3627 74.11 12.288 73.278 12.48ZM7.04 27.44C9.36533 27.4187 11.6267 27.5253 13.824 27.76C13.8667 28.464 13.8773 29.2747 13.856 30.192C13.856 31.1093 13.8027 31.952 13.696 32.72C13.2907 32.6347 12.7893 32.6027 12.192 32.624C11.5947 32.6453 10.7947 32.6773 9.792 32.72H9.728H9.696C9.696 32.7413 9.68533 32.7627 9.664 32.784C9.664 32.784 9.664 32.7947 9.664 32.816C9.64267 32.9227 9.62133 33.0933 9.6 33.328C9.6 33.5413 9.6 33.8933 9.6 34.384C9.6 34.8533 9.6 35.4827 9.6 36.272C9.62133 37.04 9.64267 38.0427 9.664 39.28C9.68533 40.496 9.70667 41.968 9.728 43.696C9.74933 45.4027 9.78133 47.4187 9.824 49.744V49.776V49.808C9.44 49.872 9.01333 49.9147 8.544 49.936C8.096 49.936 7.63733 49.936 7.168 49.936C6.72 49.936 6.272 49.936 5.824 49.936C5.376 49.936 4.96 49.968 4.576 50.032C4.55467 49.9467 4.55467 49.5627 4.576 48.88C4.59733 48.1973 4.608 47.184 4.608 45.84C4.62933 44.4747 4.61867 42.736 4.576 40.624C4.55467 38.512 4.48 35.9627 4.352 32.976L4.32 32.944C4.064 32.816 3.744 32.7413 3.36 32.72C2.976 32.6773 2.592 32.656 2.208 32.656C1.824 32.6347 1.472 32.624 1.152 32.624C0.832 32.624 0.608 32.6027 0.48 32.56C0.437333 32.4747 0.394667 32.2613 0.352 31.92C0.330667 31.5787 0.309333 31.1733 0.288 30.704C0.288 30.2133 0.288 29.6907 0.288 29.136C0.288 28.5813 0.309333 28.048 0.352 27.536C0.352 27.5147 0.341333 27.504 0.32 27.504C0.32 27.504 0.32 27.4933 0.32 27.472C2.496 27.4507 4.736 27.44 7.04 27.44ZM23.4428 33.968C23.9761 33.9893 24.5841 34.0213 25.2668 34.064C25.2881 34.192 25.2988 34.32 25.2988 34.448C25.3201 34.576 25.3308 34.704 25.3308 34.832V35.152C25.2668 37.456 25.2774 39.728 25.3628 41.968C25.4481 44.1867 25.4161 46.4373 25.2668 48.72C25.2668 48.9973 25.2561 49.2747 25.2348 49.552C25.2348 49.8293 25.1068 49.9893 24.8508 50.032H24.4668C24.1254 50.032 23.7734 50.0213 23.4108 50C23.0694 49.9573 22.7281 49.936 22.3868 49.936C22.1521 49.936 21.9174 49.9573 21.6828 50C21.4694 50.0213 21.2454 50.032 21.0108 50.032C20.8614 49.9893 20.7548 49.904 20.6908 49.776C20.6481 49.648 20.6267 49.4987 20.6267 49.328C20.6267 49.0933 20.6481 48.9013 20.6908 48.752C20.7334 48.6027 20.7548 48.4213 20.7548 48.208C20.2428 48.72 19.5921 49.1573 18.8028 49.52C18.0348 49.8827 17.2774 50.064 16.5308 50.064C15.6988 50.064 14.9841 49.776 14.3868 49.2C13.8108 48.624 13.3308 47.9093 12.9468 47.056C12.5628 46.2027 12.2748 45.2747 12.0828 44.272C11.9121 43.2693 11.8268 42.3413 11.8268 41.488C11.8268 40.4213 11.9654 39.44 12.2428 38.544C12.5201 37.648 12.8934 36.88 13.3628 36.24C13.8534 35.5787 14.4294 35.0667 15.0908 34.704C15.7521 34.32 16.4561 34.1173 17.2028 34.096C17.5868 34.096 17.9388 34.1067 18.2588 34.128C18.6001 34.128 18.9094 34.1813 19.1868 34.288C19.4641 34.3733 19.7094 34.5227 19.9228 34.736C20.1361 34.928 20.3174 35.2053 20.4668 35.568C20.4454 35.2267 20.4561 34.9387 20.4988 34.704C20.5628 34.448 20.5948 34.192 20.5948 33.936C20.5948 33.9147 20.6588 33.904 20.7868 33.904C20.9361 33.8827 21.0961 33.8827 21.2668 33.904C21.4374 33.904 21.6081 33.904 21.7788 33.904C21.9494 33.904 22.0668 33.904 22.1308 33.904C22.4934 33.9253 22.9308 33.9467 23.4428 33.968ZM16.8508 39.024C16.3601 39.4293 16.0614 39.8987 15.9548 40.432C15.8694 40.7093 15.8161 40.9973 15.7948 41.296C15.7734 41.5733 15.7628 41.8507 15.7628 42.128C15.7628 43.088 16.0081 43.9093 16.4988 44.592C17.0108 45.2533 17.7148 45.584 18.6108 45.584C19.1441 45.584 19.5388 45.4987 19.7948 45.328C20.0721 45.136 20.2641 44.88 20.3708 44.56C20.4988 44.2187 20.5628 43.8133 20.5628 43.344C20.5841 42.8533 20.5948 42.3093 20.5948 41.712C20.5948 40.9653 20.5841 40.3787 20.5628 39.952C20.5628 39.504 20.5094 39.1627 20.4028 38.928C20.3174 38.6933 20.1574 38.544 19.9228 38.48C19.7094 38.416 19.3788 38.384 18.9308 38.384C18.0561 38.384 17.3628 38.5973 16.8508 39.024ZM31.2295 28.144C31.5922 28.1653 31.9548 28.1547 32.3175 28.112V32.4C32.3175 32.6773 32.3175 32.9653 32.3175 33.264C32.3388 33.5627 32.3495 33.872 32.3495 34.192C33.0108 34.1707 33.7042 34.1387 34.4295 34.096C35.1762 34.0533 36.0935 34 37.1815 33.936C37.3308 34.1067 37.4162 34.3627 37.4375 34.704C37.4588 35.024 37.4588 35.376 37.4375 35.76C37.4162 36.144 37.3842 36.5387 37.3415 36.944C37.3202 37.328 37.3308 37.6587 37.3735 37.936H32.4135C32.4135 39.088 32.4135 40.2187 32.4135 41.328C32.4135 42.416 32.4242 43.44 32.4455 44.4C32.6588 44.6987 32.9682 44.9333 33.3735 45.104C33.7788 45.2747 34.2162 45.4133 34.6855 45.52C35.1548 45.6053 35.6242 45.6587 36.0935 45.68C36.5842 45.7013 37.0108 45.7013 37.3735 45.68C37.4162 45.9787 37.4588 46.3093 37.5015 46.672C37.5442 47.0347 37.5762 47.408 37.5975 47.792C37.6188 48.176 37.6082 48.56 37.5655 48.944C37.5442 49.328 37.4802 49.68 37.3735 50C36.5202 50.0427 35.6348 50.0427 34.7175 50C33.8002 49.936 32.9362 49.808 32.1255 49.616C31.3148 49.424 30.5895 49.136 29.9495 48.752C29.3308 48.368 28.8828 47.8453 28.6055 47.184C28.3282 45.5413 28.1682 43.9947 28.1255 42.544C28.0828 41.072 28.0722 39.5573 28.0935 38C27.7522 38.0213 27.3895 38.032 27.0055 38.032C26.6428 38.032 26.2375 38.032 25.7895 38.032L25.8855 34.128C26.3122 34.1493 26.7068 34.16 27.0695 34.16C27.4535 34.16 27.8162 34.16 28.1575 34.16C28.1575 33.6907 28.1468 33.1893 28.1255 32.656C28.1042 32.1013 28.0935 31.5467 28.0935 30.992C28.0935 30.4373 28.0935 29.904 28.0935 29.392C28.1148 28.88 28.1468 28.4213 28.1895 28.016C28.4668 27.9733 28.7655 27.9627 29.0855 27.984C29.4268 28.0053 29.7788 28.0373 30.1415 28.08C30.5042 28.1013 30.8668 28.1227 31.2295 28.144ZM42.6045 28.144C42.9672 28.1653 43.3298 28.1547 43.6925 28.112V32.4C43.6925 32.6773 43.6925 32.9653 43.6925 33.264C43.7138 33.5627 43.7245 33.872 43.7245 34.192C44.3858 34.1707 45.0792 34.1387 45.8045 34.096C46.5512 34.0533 47.4685 34 48.5565 33.936C48.7058 34.1067 48.7912 34.3627 48.8125 34.704C48.8338 35.024 48.8338 35.376 48.8125 35.76C48.7912 36.144 48.7592 36.5387 48.7165 36.944C48.6952 37.328 48.7058 37.6587 48.7485 37.936H43.7885C43.7885 39.088 43.7885 40.2187 43.7885 41.328C43.7885 42.416 43.7992 43.44 43.8205 44.4C44.0338 44.6987 44.3432 44.9333 44.7485 45.104C45.1538 45.2747 45.5912 45.4133 46.0605 45.52C46.5298 45.6053 46.9992 45.6587 47.4685 45.68C47.9592 45.7013 48.3858 45.7013 48.7485 45.68C48.7912 45.9787 48.8338 46.3093 48.8765 46.672C48.9192 47.0347 48.9512 47.408 48.9725 47.792C48.9938 48.176 48.9832 48.56 48.9405 48.944C48.9192 49.328 48.8552 49.68 48.7485 50C47.8952 50.0427 47.0098 50.0427 46.0925 50C45.1752 49.936 44.3112 49.808 43.5005 49.616C42.6898 49.424 41.9645 49.136 41.3245 48.752C40.7058 48.368 40.2578 47.8453 39.9805 47.184C39.7032 45.5413 39.5432 43.9947 39.5005 42.544C39.4578 41.072 39.4472 39.5573 39.4685 38C39.1272 38.0213 38.7645 38.032 38.3805 38.032C38.0178 38.032 37.6125 38.032 37.1645 38.032L37.2605 34.128C37.6872 34.1493 38.0818 34.16 38.4445 34.16C38.8285 34.16 39.1912 34.16 39.5325 34.16C39.5325 33.6907 39.5218 33.1893 39.5005 32.656C39.4792 32.1013 39.4685 31.5467 39.4685 30.992C39.4685 30.4373 39.4685 29.904 39.4685 29.392C39.4898 28.88 39.5218 28.4213 39.5645 28.016C39.8418 27.9733 40.1405 27.9627 40.4605 27.984C40.8018 28.0053 41.1538 28.0373 41.5165 28.08C41.8792 28.1013 42.2418 28.1227 42.6045 28.144ZM49.3395 36.368C49.4675 35.9627 49.5635 35.6427 49.6275 35.408C49.7768 35.088 50.0115 34.8107 50.3315 34.576C50.6728 34.3413 51.0568 34.1493 51.4835 34C51.9315 33.8293 52.4008 33.712 52.8915 33.648C53.4035 33.584 53.9155 33.552 54.4275 33.552C54.8542 33.5947 55.2595 33.6053 55.6435 33.584C56.0488 33.5413 56.4755 33.5413 56.9235 33.584C57.6062 33.6267 58.2568 33.7653 58.8755 34C59.4942 34.2133 60.0275 34.5333 60.4755 34.96C60.7742 35.152 61.0088 35.4613 61.1795 35.888C61.3502 36.3147 61.4782 36.816 61.5635 37.392C61.6488 37.9467 61.7022 38.5653 61.7235 39.248C61.7448 39.9093 61.7662 40.592 61.7875 41.296C61.7662 41.9147 61.7342 42.6187 61.6915 43.408C61.6702 44.1973 61.6168 44.9547 61.5315 45.68C61.4675 46.4053 61.3715 47.056 61.2435 47.632C61.1368 48.208 60.9768 48.6027 60.7635 48.816C60.4008 49.328 59.9208 49.6907 59.3235 49.904C58.7475 50.1173 58.1182 50.2453 57.4355 50.288C56.7528 50.352 56.0488 50.352 55.3235 50.288C54.5982 50.2453 53.9368 50.224 53.3395 50.224C52.2515 50.032 51.3342 49.5627 50.5875 48.816C50.0115 48.304 49.6168 47.664 49.4035 46.896C49.1902 46.128 49.0622 45.328 49.0195 44.496C48.9768 43.6427 48.9662 42.7893 48.9875 41.936C49.0302 41.0827 49.0195 40.304 48.9555 39.6C48.9555 39.216 48.9662 38.8427 48.9875 38.48C49.0088 38.096 49.0515 37.7013 49.1155 37.296C49.1368 37.0613 49.2115 36.752 49.3395 36.368ZM54.7155 38.48C54.2675 38.608 53.9048 38.8427 53.6275 39.184C53.4995 39.2693 53.4035 39.4827 53.3395 39.824C53.2542 40.5067 53.2115 41.1893 53.2115 41.872C53.2115 42.5333 53.1902 43.2373 53.1475 43.984C53.1262 44.4747 53.2542 44.8587 53.5315 45.136C53.8088 45.392 54.1395 45.5733 54.5235 45.68C54.9288 45.7653 55.3448 45.7867 55.7715 45.744C56.1982 45.68 56.5502 45.5733 56.8275 45.424C57.1902 45.2533 57.4355 44.9013 57.5635 44.368C57.6488 43.6853 57.7128 43.0027 57.7555 42.32C57.8195 41.616 57.7875 40.9547 57.6595 40.336C57.5528 39.5893 57.2435 39.0453 56.7315 38.704C56.2195 38.3627 55.5475 38.288 54.7155 38.48ZM62.6833 36.368C62.8113 35.9627 62.9073 35.6427 62.9713 35.408C63.1206 35.088 63.3553 34.8107 63.6753 34.576C64.0166 34.3413 64.4006 34.1493 64.8273 34C65.2753 33.8293 65.7446 33.712 66.2352 33.648C66.7473 33.584 67.2593 33.552 67.7713 33.552C68.1979 33.5947 68.6033 33.6053 68.9873 33.584C69.3926 33.5413 69.8193 33.5413 70.2673 33.584C70.9499 33.6267 71.6006 33.7653 72.2193 34C72.8379 34.2133 73.3713 34.5333 73.8193 34.96C74.1179 35.152 74.3526 35.4613 74.5233 35.888C74.6939 36.3147 74.8219 36.816 74.9073 37.392C74.9926 37.9467 75.0459 38.5653 75.0673 39.248C75.0886 39.9093 75.1099 40.592 75.1313 41.296C75.1099 41.9147 75.0779 42.6187 75.0353 43.408C75.0139 44.1973 74.9606 44.9547 74.8753 45.68C74.8113 46.4053 74.7153 47.056 74.5873 47.632C74.4806 48.208 74.3206 48.6027 74.1073 48.816C73.7446 49.328 73.2646 49.6907 72.6673 49.904C72.0913 50.1173 71.4619 50.2453 70.7793 50.288C70.0966 50.352 69.3926 50.352 68.6673 50.288C67.9419 50.2453 67.2806 50.224 66.6833 50.224C65.5953 50.032 64.6779 49.5627 63.9313 48.816C63.3553 48.304 62.9606 47.664 62.7473 46.896C62.5339 46.128 62.4059 45.328 62.3633 44.496C62.3206 43.6427 62.3099 42.7893 62.3313 41.936C62.3739 41.0827 62.3633 40.304 62.2993 39.6C62.2993 39.216 62.3099 38.8427 62.3313 38.48C62.3526 38.096 62.3953 37.7013 62.4593 37.296C62.4806 37.0613 62.5553 36.752 62.6833 36.368ZM68.0593 38.48C67.6113 38.608 67.2486 38.8427 66.9713 39.184C66.8433 39.2693 66.7473 39.4827 66.6833 39.824C66.5979 40.5067 66.5553 41.1893 66.5553 41.872C66.5553 42.5333 66.5339 43.2373 66.4913 43.984C66.4699 44.4747 66.5979 44.8587 66.8753 45.136C67.1526 45.392 67.4833 45.5733 67.8673 45.68C68.2726 45.7653 68.6886 45.7867 69.1153 45.744C69.5419 45.68 69.8939 45.5733 70.1713 45.424C70.5339 45.2533 70.7793 44.9013 70.9073 44.368C70.9926 43.6853 71.0566 43.0027 71.0993 42.32C71.1633 41.616 71.1313 40.9547 71.0033 40.336C70.8966 39.5893 70.5873 39.0453 70.0753 38.704C69.5633 38.3627 68.8913 38.288 68.0593 38.48ZM14.432 56.864C14.9867 57.9093 15.1147 59.232 14.816 60.832H14.784C14.0373 60.96 13.2373 61.0453 12.384 61.088C11.5307 61.1093 10.7307 61.0133 9.984 60.8C10.112 60.224 9.99467 59.744 9.632 59.36C9.26933 58.976 8.832 58.7307 8.32 58.624C7.808 58.5173 7.30667 58.5707 6.816 58.784C6.34667 58.9973 6.06933 59.4027 5.984 60C5.94133 60.1493 5.92 60.2987 5.92 60.448C5.94133 60.576 5.96267 60.7147 5.984 60.864C6.15467 61.376 6.432 61.7173 6.816 61.888C7.2 62.0587 7.616 62.176 8.064 62.24C9.19467 62.368 10.24 62.7307 11.2 63.328C12.1813 63.9253 12.9813 64.6827 13.6 65.6C13.984 66.0907 14.272 66.624 14.464 67.2C14.656 67.7547 14.7627 68.3307 14.784 68.928C14.8267 69.5253 14.784 70.1333 14.656 70.752C14.5493 71.3493 14.368 71.9253 14.112 72.48C13.856 73.1413 13.5147 73.7067 13.088 74.176C12.6613 74.6453 12.1707 75.0293 11.616 75.328C11.0827 75.6267 10.496 75.8507 9.856 76C9.23733 76.128 8.59733 76.1813 7.936 76.16C6.99733 76.1387 6.05867 75.9787 5.12 75.68C4.20267 75.36 3.38133 74.9227 2.656 74.368C1.93067 73.8133 1.35467 73.1413 0.928 72.352C0.501333 71.5413 0.32 70.624 0.384 69.6V69.504V69.408C1.13067 69.3013 1.952 69.28 2.848 69.344C3.744 69.3867 4.55467 69.3973 5.28 69.376C5.32267 70.0587 5.58933 70.5707 6.08 70.912C6.592 71.2533 7.12533 71.424 7.68 71.424C8.256 71.4027 8.74667 71.2107 9.152 70.848C9.57867 70.4853 9.728 69.9307 9.6 69.184C9.536 68.672 9.344 68.2667 9.024 67.968C8.704 67.648 8.32 67.392 7.872 67.2C7.44533 67.008 6.976 66.8693 6.464 66.784C5.952 66.6773 5.472 66.5813 5.024 66.496C4.59733 66.4107 4.20267 66.272 3.84 66.08C3.47733 65.888 3.14667 65.664 2.848 65.408C1.86667 64.4693 1.22667 63.4347 0.928 62.304C0.650667 61.1733 0.64 60.0747 0.896 59.008C1.152 57.9413 1.632 56.9707 2.336 56.096C3.06133 55.2213 3.936 54.5707 4.96 54.144C5.472 53.9307 6.03733 53.792 6.656 53.728C7.27467 53.6427 7.89333 53.6213 8.512 53.664C9.152 53.6853 9.77067 53.7707 10.368 53.92C10.9867 54.0693 11.552 54.2613 12.064 54.496C13.088 55.0293 13.8773 55.8187 14.432 56.864ZM19.8753 60.928C19.8753 61.376 19.8753 61.6427 19.8753 61.728C19.9819 61.664 20.1099 61.5893 20.2593 61.504C20.4299 61.4187 20.5686 61.3333 20.6753 61.248C21.1233 60.928 21.6246 60.672 22.1793 60.48C22.7339 60.288 23.2993 60.1813 23.8753 60.16C24.4726 60.1387 25.0486 60.2027 25.6033 60.352C26.1579 60.5013 26.6593 60.768 27.1073 61.152C27.3206 61.344 27.4806 61.7493 27.5873 62.368C27.7153 62.9653 27.7899 63.6907 27.8113 64.544C27.8539 65.3973 27.8646 66.336 27.8433 67.36C27.8433 68.3627 27.8326 69.3867 27.8113 70.432C27.7899 71.456 27.7686 72.448 27.7473 73.408C27.7259 74.368 27.7366 75.2107 27.7793 75.936C27.0326 76.0427 26.3606 76.0853 25.7633 76.064C25.1873 76.064 24.5259 76.064 23.7793 76.064C23.7366 75.5733 23.7153 75.0187 23.7153 74.4C23.7153 73.7813 23.7153 73.1413 23.7153 72.48C23.7366 71.8187 23.7366 71.1573 23.7153 70.496C23.7153 69.8347 23.6939 69.216 23.6513 68.64C23.6299 68.384 23.6086 68.1067 23.5873 67.808C23.5659 67.488 23.5233 67.1787 23.4593 66.88C23.4166 66.5813 23.3419 66.3147 23.2353 66.08C23.1499 65.8453 23.0219 65.664 22.8513 65.536C22.8299 65.5147 22.8086 65.504 22.7873 65.504C22.7659 65.504 22.7446 65.4933 22.7233 65.472C22.5526 65.3867 22.2966 65.3227 21.9553 65.28C21.6353 65.216 21.3153 65.2373 20.9953 65.344C20.6753 65.4293 20.3873 65.6213 20.1313 65.92C19.8753 66.1973 19.7259 66.624 19.6833 67.2C19.6406 67.9467 19.6299 68.6827 19.6513 69.408C19.6726 70.112 19.6939 70.8267 19.7153 71.552C19.7579 72.256 19.7793 72.96 19.7793 73.664C19.7793 74.368 19.7366 75.072 19.6513 75.776V75.904C19.2886 76.0107 18.9686 76.0747 18.6913 76.096C18.4353 76.1173 18.1686 76.1173 17.8913 76.096C17.6139 76.096 17.3046 76.0853 16.9633 76.064C16.6219 76.0427 16.1953 76.0533 15.6833 76.096C15.6833 75.2213 15.6726 74.176 15.6513 72.96C15.6513 71.7227 15.6406 70.4 15.6193 68.992C15.6193 67.584 15.6193 66.1333 15.6193 64.64C15.6193 63.1253 15.6193 61.6533 15.6193 60.224C15.6193 58.7947 15.6193 57.4507 15.6193 56.192C15.6406 54.912 15.6619 53.8027 15.6833 52.864C15.9393 52.8853 16.1526 52.9067 16.3233 52.928C16.4939 52.928 16.6539 52.928 16.8033 52.928C16.9526 52.928 17.1126 52.928 17.2833 52.928C17.4539 52.9067 17.6673 52.8853 17.9233 52.864C18.0086 52.864 18.1579 52.8533 18.3713 52.832C18.5846 52.7893 18.7979 52.7573 19.0113 52.736C19.2246 52.7147 19.4166 52.7147 19.5873 52.736C19.7579 52.736 19.8433 52.768 19.8433 52.832C19.8646 52.9387 19.8753 53.2267 19.8753 53.696C19.8753 54.144 19.8753 54.688 19.8753 55.328C19.8753 55.9467 19.8753 56.6187 19.8753 57.344C19.8753 58.048 19.8753 58.7093 19.8753 59.328C19.8753 59.9467 19.8753 60.48 19.8753 60.928ZM29.027 62.368C29.155 61.9627 29.251 61.6427 29.315 61.408C29.4643 61.088 29.699 60.8107 30.019 60.576C30.3603 60.3413 30.7443 60.1493 31.171 60C31.619 59.8293 32.0883 59.712 32.579 59.648C33.091 59.584 33.603 59.552 34.115 59.552C34.5417 59.5947 34.947 59.6053 35.331 59.584C35.7363 59.5413 36.163 59.5413 36.611 59.584C37.2937 59.6267 37.9443 59.7653 38.563 60C39.1817 60.2133 39.715 60.5333 40.163 60.96C40.4617 61.152 40.6963 61.4613 40.867 61.888C41.0377 62.3147 41.1657 62.816 41.251 63.392C41.3363 63.9467 41.3897 64.5653 41.411 65.248C41.4323 65.9093 41.4537 66.592 41.475 67.296C41.4537 67.9147 41.4217 68.6187 41.379 69.408C41.3577 70.1973 41.3043 70.9547 41.219 71.68C41.155 72.4053 41.059 73.056 40.931 73.632C40.8243 74.208 40.6643 74.6027 40.451 74.816C40.0883 75.328 39.6083 75.6907 39.011 75.904C38.435 76.1173 37.8057 76.2453 37.123 76.288C36.4403 76.352 35.7363 76.352 35.011 76.288C34.2857 76.2453 33.6243 76.224 33.027 76.224C31.939 76.032 31.0217 75.5627 30.275 74.816C29.699 74.304 29.3043 73.664 29.091 72.896C28.8777 72.128 28.7497 71.328 28.707 70.496C28.6643 69.6427 28.6537 68.7893 28.675 67.936C28.7177 67.0827 28.707 66.304 28.643 65.6C28.643 65.216 28.6537 64.8427 28.675 64.48C28.6963 64.096 28.739 63.7013 28.803 63.296C28.8243 63.0613 28.899 62.752 29.027 62.368ZM34.403 64.48C33.955 64.608 33.5923 64.8427 33.315 65.184C33.187 65.2693 33.091 65.4827 33.027 65.824C32.9417 66.5067 32.899 67.1893 32.899 67.872C32.899 68.5333 32.8777 69.2373 32.835 69.984C32.8137 70.4747 32.9417 70.8587 33.219 71.136C33.4963 71.392 33.827 71.5733 34.211 71.68C34.6163 71.7653 35.0323 71.7867 35.459 71.744C35.8857 71.68 36.2377 71.5733 36.515 71.424C36.8777 71.2533 37.123 70.9013 37.251 70.368C37.3363 69.6853 37.4003 69.0027 37.443 68.32C37.507 67.616 37.475 66.9547 37.347 66.336C37.2403 65.5893 36.931 65.0453 36.419 64.704C35.907 64.3627 35.235 64.288 34.403 64.48ZM46.5948 81.152C46.5948 81.3867 46.5841 81.7173 46.5628 82.144V82.496C46.5628 82.5173 46.4134 82.5387 46.1148 82.56C45.8374 82.6027 45.4854 82.624 45.0588 82.624C44.6534 82.6453 44.2161 82.6453 43.7468 82.624C43.2774 82.624 42.8721 82.592 42.5308 82.528V80.416C42.5308 78.6453 42.5094 76.8747 42.4668 75.104C42.4241 73.3333 42.3814 71.5947 42.3388 69.888C42.3174 68.16 42.2961 66.4747 42.2747 64.832C42.2747 63.168 42.2961 61.568 42.3388 60.032C43.0001 60.032 43.7254 60.0213 44.5148 60C45.3041 59.9573 46.0188 59.9787 46.6588 60.064C46.6801 60.1067 46.6908 60.1813 46.6908 60.288C46.6908 60.5013 46.6908 60.672 46.6908 60.8C46.7121 60.928 46.7228 61.1093 46.7228 61.344C46.7654 61.4507 46.8081 61.536 46.8508 61.6C46.9148 61.6427 46.9788 61.6 47.0428 61.472C47.3628 60.832 47.7894 60.4267 48.3228 60.256C48.8561 60.064 49.4214 60.0107 50.0188 60.096C51.2348 60.1813 52.1948 60.5013 52.8988 61.056C53.6028 61.5893 54.1254 62.2827 54.4668 63.136C54.8294 63.968 55.0641 64.9067 55.1708 65.952C55.2774 66.9973 55.3521 68.0533 55.3948 69.12C55.3948 69.8667 55.3414 70.592 55.2348 71.296C55.1494 72 55.0001 72.6507 54.7868 73.248C54.5948 73.824 54.3281 74.3253 53.9868 74.752C53.6668 75.1573 53.2721 75.4453 52.8028 75.616C52.2268 75.8293 51.5868 75.9573 50.8828 76C50.2001 76.064 49.5494 76.064 48.9308 76C48.3121 75.9573 47.7894 75.8613 47.3628 75.712C46.9361 75.5627 46.7014 75.392 46.6588 75.2C46.6801 76.2027 46.6908 77.0133 46.6908 77.632C46.6908 78.2507 46.6908 78.7413 46.6908 79.104C46.6908 79.488 46.6801 79.776 46.6588 79.968C46.6588 80.1813 46.6481 80.3733 46.6268 80.544C46.6268 80.736 46.6161 80.9387 46.5948 81.152ZM50.5628 71.776C51.0961 71.392 51.4161 70.8267 51.5228 70.08C51.6294 69.7813 51.6934 69.472 51.7148 69.152C51.7361 68.832 51.7468 68.5227 51.7468 68.224C51.7468 67.6907 51.6828 67.1787 51.5548 66.688C51.4268 66.176 51.2348 65.728 50.9788 65.344C50.7228 64.9387 50.4134 64.6187 50.0508 64.384C49.6881 64.1493 49.2828 64.032 48.8348 64.032C48.2801 64.032 47.8534 64.1493 47.5548 64.384C47.2561 64.6187 47.0214 64.9387 46.8508 65.344C46.7014 65.7493 46.6054 66.24 46.5628 66.816C46.5414 67.392 46.5308 68.0107 46.5308 68.672C46.5308 69.504 46.5414 70.1653 46.5628 70.656C46.6054 71.1253 46.6908 71.488 46.8188 71.744C46.9468 72 47.1388 72.1707 47.3948 72.256C47.6721 72.32 48.0348 72.352 48.4828 72.352C49.3574 72.352 50.0508 72.16 50.5628 71.776Z" fill="white"/>
<path d="M100.092 20.512C100.092 20.7253 100.103 20.9173 100.124 21.088C100.167 21.856 100.188 22.4427 100.188 22.848C100.188 23.232 100.156 23.52 100.092 23.712C100.049 23.8827 99.964 23.9787 99.836 24C99.708 24 99.5267 24 99.292 24C99.0573 23.9787 98.748 23.9787 98.364 24C98.0013 24.0213 97.372 24.0427 96.476 24.064C95.6013 24.0853 94.3853 24.096 92.828 24.096C91.292 24.096 89.2333 24.0747 86.652 24.032V23.456C86.716 21.856 86.7693 20.416 86.812 19.136C86.8547 17.8347 86.876 16.6293 86.876 15.52C86.8973 14.3893 86.908 13.3013 86.908 12.256C86.908 11.2107 86.8973 10.144 86.876 9.056C86.8547 7.968 86.8333 6.816 86.812 5.6C86.7907 4.36267 86.7693 2.99733 86.748 1.504C86.9613 1.41867 87.292 1.35467 87.74 1.312C88.188 1.248 88.668 1.216 89.18 1.216C89.692 1.216 90.1933 1.248 90.684 1.312C91.1747 1.376 91.5693 1.472 91.868 1.6C91.8253 2.98667 91.804 4.416 91.804 5.888C91.8253 7.33867 91.8467 8.8 91.868 10.272C91.8893 11.744 91.9 13.216 91.9 14.688C91.9213 16.1387 91.9213 17.5467 91.9 18.912V18.944C92.0493 18.9013 92.3267 18.8907 92.732 18.912C93.1587 18.912 93.6493 18.9227 94.204 18.944C94.7587 18.9653 95.3453 18.9973 95.964 19.04C96.604 19.0613 97.2013 19.0827 97.756 19.104C98.332 19.1253 98.8333 19.1467 99.26 19.168C99.708 19.168 100.017 19.1573 100.188 19.136C100.188 19.3707 100.177 19.6053 100.156 19.84C100.135 20.0533 100.113 20.2773 100.092 20.512ZM108.242 23.072C108.263 22.8373 108.263 22.5707 108.242 22.272C108.135 22.336 107.997 22.4107 107.826 22.496C107.677 22.5813 107.549 22.6667 107.442 22.752C106.994 23.072 106.493 23.328 105.938 23.52C105.383 23.712 104.807 23.8187 104.21 23.84C103.634 23.8613 103.069 23.7973 102.514 23.648C101.959 23.4987 101.458 23.232 101.01 22.848C100.797 22.656 100.626 22.2613 100.498 21.664C100.391 21.0453 100.317 20.3093 100.274 19.456C100.253 18.6027 100.242 17.6747 100.242 16.672C100.263 15.648 100.285 14.624 100.306 13.6C100.327 12.5547 100.349 11.552 100.37 10.592C100.391 9.632 100.381 8.78933 100.338 8.064C101.085 7.95733 101.746 7.91467 102.322 7.936C102.919 7.936 103.591 7.936 104.338 7.936C104.381 8.42667 104.402 8.98133 104.402 9.6C104.402 10.2187 104.391 10.8587 104.37 11.52C104.37 12.1813 104.37 12.8427 104.37 13.504C104.391 14.1653 104.423 14.784 104.466 15.36C104.487 15.616 104.509 15.904 104.53 16.224C104.551 16.5227 104.583 16.8213 104.626 17.12C104.69 17.4187 104.765 17.6853 104.85 17.92C104.957 18.1547 105.095 18.336 105.266 18.464C105.287 18.4853 105.309 18.496 105.33 18.496C105.351 18.496 105.373 18.5067 105.394 18.528C105.565 18.6133 105.81 18.688 106.13 18.752C106.471 18.7947 106.802 18.7733 107.122 18.688C107.442 18.5813 107.73 18.3893 107.986 18.112C108.242 17.8133 108.391 17.376 108.434 16.8C108.477 16.0747 108.487 15.3493 108.466 14.624C108.445 13.8987 108.413 13.184 108.37 12.48C108.349 11.7547 108.327 11.04 108.306 10.336C108.306 9.632 108.359 8.928 108.466 8.224V8.096C108.829 7.98933 109.138 7.92533 109.394 7.904C109.671 7.88267 109.949 7.88267 110.226 7.904C110.503 7.904 110.813 7.91467 111.154 7.936C111.495 7.95733 111.922 7.94667 112.434 7.904C112.434 10.528 112.455 13.152 112.498 15.776C112.562 18.4 112.551 21.12 112.466 23.936C112.21 23.9147 111.997 23.904 111.826 23.904C111.655 23.8827 111.495 23.872 111.346 23.872C111.197 23.872 111.037 23.8827 110.866 23.904C110.695 23.904 110.482 23.9147 110.226 23.936C110.141 23.936 109.991 23.9573 109.778 24C109.565 24.0213 109.351 24.0427 109.138 24.064C108.925 24.0853 108.733 24.0853 108.562 24.064C108.391 24.064 108.306 24.032 108.306 23.968C108.263 23.6053 108.242 23.3067 108.242 23.072ZM125.84 8.064C126.224 8.04267 126.459 8.05333 126.544 8.096C126.544 8.90667 126.523 9.65333 126.48 10.336C126.438 10.9973 126.459 11.68 126.544 12.384C125.456 13.5573 124.272 14.7413 122.992 15.936C121.712 17.1093 120.528 18.304 119.44 19.52C120.507 19.4347 121.638 19.424 122.832 19.488C124.048 19.552 125.232 19.4987 126.384 19.328C126.384 20.0107 126.395 20.736 126.416 21.504C126.438 22.272 126.448 23.0293 126.448 23.776C125.467 23.7973 124.422 23.8187 123.312 23.84C122.224 23.8613 121.115 23.8827 119.984 23.904C118.854 23.9253 117.734 23.9467 116.624 23.968C115.515 23.968 114.448 23.968 113.424 23.968C113.446 23.3493 113.446 22.848 113.424 22.464C113.424 22.08 113.414 21.7493 113.392 21.472C113.371 21.1947 113.35 20.9387 113.328 20.704C113.328 20.4693 113.339 20.192 113.36 19.872C113.872 19.2107 114.438 18.5707 115.056 17.952C115.675 17.312 116.315 16.6933 116.976 16.096C117.638 15.4773 118.288 14.8693 118.928 14.272C119.568 13.6533 120.155 13.024 120.688 12.384C120.134 12.4053 119.536 12.4267 118.896 12.448C118.256 12.4693 117.616 12.5013 116.976 12.544C116.336 12.5867 115.718 12.64 115.12 12.704C114.544 12.768 114.022 12.832 113.552 12.896C113.51 12.32 113.488 11.8293 113.488 11.424C113.488 11.0187 113.488 10.656 113.488 10.336C113.51 9.99467 113.531 9.65333 113.552 9.312C113.574 8.97067 113.574 8.56533 113.552 8.096C115.28 8.096 116.902 8.096 118.416 8.096C119.952 8.07467 121.296 8.064 122.448 8.064C122.619 8.10667 122.907 8.128 123.312 8.128C123.739 8.10667 124.176 8.096 124.624 8.096C125.072 8.07467 125.478 8.064 125.84 8.064Z" fill="#FFD911"/>
</svg>
