<svg width="16" height="16" viewBox="0 0 16 16" fill="none" xmlns="http://www.w3.org/2000/svg">
<path d="M12.7 3.27334C12.0888 2.65595 11.3608 2.16645 10.5584 1.83337C9.75607 1.50029 8.89541 1.33031 8.02667 1.33334C4.38667 1.33334 1.42 4.3 1.42 7.94C1.42 9.10667 1.72667 10.24 2.3 11.24L1.36667 14.6667L4.86667 13.7467C5.83334 14.2733 6.92 14.5533 8.02667 14.5533C11.6667 14.5533 14.6333 11.5867 14.6333 7.94667C14.6333 6.18 13.9467 4.52 12.7 3.27334ZM8.02667 13.4333C7.04 13.4333 6.07334 13.1667 5.22667 12.6667L5.02667 12.5467L2.94667 13.0933L3.5 11.0667L3.36667 10.86C2.8185 9.98465 2.52743 8.97283 2.52667 7.94C2.52667 4.91334 4.99334 2.44667 8.02 2.44667C9.48667 2.44667 10.8667 3.02 11.9 4.06C12.4117 4.56931 12.8171 5.17511 13.0929 5.84229C13.3687 6.50946 13.5094 7.22474 13.5067 7.94667C13.52 10.9733 11.0533 13.4333 8.02667 13.4333ZM11.04 9.32667C10.8733 9.24667 10.06 8.84667 9.91334 8.78667C9.76 8.73334 9.65334 8.70667 9.54 8.86667C9.42667 9.03334 9.11334 9.40667 9.02 9.51334C8.92667 9.62667 8.82667 9.64 8.66 9.55334C8.49334 9.47334 7.96 9.29334 7.33334 8.73334C6.84 8.29334 6.51334 7.75334 6.41334 7.58667C6.32 7.42 6.4 7.33334 6.48667 7.24667C6.56 7.17334 6.65334 7.05334 6.73334 6.96C6.81334 6.86667 6.84667 6.79334 6.9 6.68667C6.95334 6.57334 6.92667 6.48 6.88667 6.4C6.84667 6.32 6.51334 5.50667 6.38 5.17334C6.24667 4.85334 6.10667 4.89334 6.00667 4.88667H5.68667C5.57334 4.88667 5.4 4.92667 5.24667 5.09334C5.1 5.26 4.67334 5.66 4.67334 6.47334C4.67334 7.28667 5.26667 8.07334 5.34667 8.18C5.42667 8.29334 6.51334 9.96 8.16667 10.6733C8.56 10.8467 8.86667 10.9467 9.10667 11.02C9.5 11.1467 9.86 11.1267 10.1467 11.0867C10.4667 11.04 11.1267 10.6867 11.26 10.3C11.4 9.91334 11.4 9.58667 11.3533 9.51334C11.3067 9.44 11.2067 9.40667 11.04 9.32667Z" fill="#FFF"/>
</svg>
